<svg width="16" height="16" viewBox="0 0 16 16" fill="none" xmlns="http://www.w3.org/2000/svg">
<path d="M10.1399 2.18004C11.031 3.07224 11.5888 4.24338 11.7198 5.49756C11.8509 6.75173 11.5473 8.01288 10.8599 9.07004C10.9799 9.17004 11.0799 9.28004 11.2199 9.38004C11.4199 9.54004 11.6899 9.74004 12.0299 9.97004C12.3699 10.21 12.5899 10.36 12.6899 10.44C13.1099 10.75 13.4199 11.01 13.6299 11.22C13.9499 11.54 14.2299 11.87 14.4699 12.22C14.7199 12.57 14.9099 12.91 15.0599 13.26C15.1999 13.61 15.2699 13.94 15.2399 14.26C15.2199 14.58 15.0999 14.85 14.8799 15.07C14.6599 15.29 14.3899 15.41 14.0699 15.43C13.7599 15.45 13.4199 15.39 13.0799 15.24C12.7299 15.1 12.3799 14.9 12.0399 14.65C11.6899 14.41 11.3599 14.13 11.0399 13.81C10.8299 13.6 10.5699 13.29 10.2699 12.88C10.1699 12.75 10.0199 12.53 9.79988 12.22C9.57988 11.9 9.39988 11.65 9.23988 11.44C9.07988 11.24 8.94988 11.09 8.79988 10.94C7.76193 11.4835 6.5776 11.6816 5.4193 11.5053C4.261 11.329 3.18919 10.7877 2.35988 9.96004C0.219883 7.81004 0.219883 4.32004 2.35988 2.18004C2.87051 1.6688 3.47689 1.26324 4.14437 0.986523C4.81185 0.709811 5.52732 0.567383 6.24988 0.567383C6.97244 0.567383 7.68792 0.709811 8.3554 0.986523C9.02287 1.26324 9.62926 1.6688 10.1399 2.18004ZM8.72988 8.54004C9.38317 7.88197 9.74978 6.99231 9.74978 6.06504C9.74978 5.13777 9.38317 4.2481 8.72988 3.59004C8.40521 3.2644 8.01946 3.00603 7.59476 2.82974C7.17005 2.65345 6.71472 2.56271 6.25488 2.56271C5.79504 2.56271 5.33972 2.65345 4.91501 2.82974C4.4903 3.00603 4.10456 3.2644 3.77988 3.59004C3.45424 3.91471 3.19588 4.30046 3.01959 4.72517C2.8433 5.14987 2.75255 5.6052 2.75255 6.06504C2.75255 6.52488 2.8433 6.9802 3.01959 7.40491C3.19588 7.82962 3.45424 8.21536 3.77988 8.54004C4.10456 8.86568 4.4903 9.12405 4.91501 9.30033C5.33972 9.47662 5.79504 9.56737 6.25488 9.56737C6.71472 9.56737 7.17005 9.47662 7.59476 9.30033C8.01946 9.12405 8.40521 8.86568 8.72988 8.54004Z" fill="black"/>
</svg>
